<?xml version="1.0" encoding="utf-8" standalone="no"?>
<!DOCTYPE svg PUBLIC "-//W3C//DTD SVG 1.1//EN"
  "http://www.w3.org/Graphics/SVG/1.1/DTD/svg11.dtd">
<svg xmlns:xlink="http://www.w3.org/1999/xlink" width="623.242096pt" height="301.518437pt" viewBox="0 0 623.242096 301.518437" xmlns="http://www.w3.org/2000/svg" version="1.1">
 <defs>
  <style type="text/css">*{stroke-linejoin: round; stroke-linecap: butt}</style>
 </defs>
 <g id="figure_1">
  <g id="patch_1">
   <path d="M 0 301.518437 
L 623.242096 301.518437 
L 623.242096 0 
L 0 0 
L 0 301.518437 
z
" style="fill: none"/>
  </g>
  <g id="axes_1">
   <g id="patch_2">
    <path d="M 29.856094 234.692969 
L 216.61943 234.692969 
L 216.61943 18.117656 
L 29.856094 18.117656 
z
" style="fill: #ffffff"/>
   </g>
   <g id="matplotlib.axis_1">
    <g id="xtick_1">
     <g id="line2d_1"/>
     <g id="text_1">
      <!-- N=4096 -->
      <g transform="translate(36.030298 248.511328) scale(0.12 -0.12)">
       <defs>
        <path id="DejaVuSans-31" d="M 628 4666 
L 1478 4666 
L 3547 763 
L 3547 4666 
L 4159 4666 
L 4159 0 
L 3309 0 
L 1241 3903 
L 1241 0 
L 628 0 
L 628 4666 
z
" transform="scale(0.015625)"/>
        <path id="DejaVuSans-20" d="M 678 2906 
L 4684 2906 
L 4684 2381 
L 678 2381 
L 678 2906 
z
M 678 1631 
L 4684 1631 
L 4684 1100 
L 678 1100 
L 678 1631 
z
" transform="scale(0.015625)"/>
        <path id="DejaVuSans-17" d="M 2419 4116 
L 825 1625 
L 2419 1625 
L 2419 4116 
z
M 2253 4666 
L 3047 4666 
L 3047 1625 
L 3713 1625 
L 3713 1100 
L 3047 1100 
L 3047 0 
L 2419 0 
L 2419 1100 
L 313 1100 
L 313 1709 
L 2253 4666 
z
" transform="scale(0.015625)"/>
        <path id="DejaVuSans-13" d="M 2034 4250 
Q 1547 4250 1301 3770 
Q 1056 3291 1056 2328 
Q 1056 1369 1301 889 
Q 1547 409 2034 409 
Q 2525 409 2770 889 
Q 3016 1369 3016 2328 
Q 3016 3291 2770 3770 
Q 2525 4250 2034 4250 
z
M 2034 4750 
Q 2819 4750 3233 4129 
Q 3647 3509 3647 2328 
Q 3647 1150 3233 529 
Q 2819 -91 2034 -91 
Q 1250 -91 836 529 
Q 422 1150 422 2328 
Q 422 3509 836 4129 
Q 1250 4750 2034 4750 
z
" transform="scale(0.015625)"/>
        <path id="DejaVuSans-1c" d="M 703 97 
L 703 672 
Q 941 559 1184 500 
Q 1428 441 1663 441 
Q 2288 441 2617 861 
Q 2947 1281 2994 2138 
Q 2813 1869 2534 1725 
Q 2256 1581 1919 1581 
Q 1219 1581 811 2004 
Q 403 2428 403 3163 
Q 403 3881 828 4315 
Q 1253 4750 1959 4750 
Q 2769 4750 3195 4129 
Q 3622 3509 3622 2328 
Q 3622 1225 3098 567 
Q 2575 -91 1691 -91 
Q 1453 -91 1209 -44 
Q 966 3 703 97 
z
M 1959 2075 
Q 2384 2075 2632 2365 
Q 2881 2656 2881 3163 
Q 2881 3666 2632 3958 
Q 2384 4250 1959 4250 
Q 1534 4250 1286 3958 
Q 1038 3666 1038 3163 
Q 1038 2656 1286 2365 
Q 1534 2075 1959 2075 
z
" transform="scale(0.015625)"/>
        <path id="DejaVuSans-19" d="M 2113 2584 
Q 1688 2584 1439 2293 
Q 1191 2003 1191 1497 
Q 1191 994 1439 701 
Q 1688 409 2113 409 
Q 2538 409 2786 701 
Q 3034 994 3034 1497 
Q 3034 2003 2786 2293 
Q 2538 2584 2113 2584 
z
M 3366 4563 
L 3366 3988 
Q 3128 4100 2886 4159 
Q 2644 4219 2406 4219 
Q 1781 4219 1451 3797 
Q 1122 3375 1075 2522 
Q 1259 2794 1537 2939 
Q 1816 3084 2150 3084 
Q 2853 3084 3261 2657 
Q 3669 2231 3669 1497 
Q 3669 778 3244 343 
Q 2819 -91 2113 -91 
Q 1303 -91 875 529 
Q 447 1150 447 2328 
Q 447 3434 972 4092 
Q 1497 4750 2381 4750 
Q 2619 4750 2861 4703 
Q 3103 4656 3366 4563 
z
" transform="scale(0.015625)"/>
       </defs>
       <use xlink:href="#DejaVuSans-31"/>
       <use xlink:href="#DejaVuSans-20" transform="translate(74.8125 0)"/>
       <use xlink:href="#DejaVuSans-17" transform="translate(158.609375 0)"/>
       <use xlink:href="#DejaVuSans-13" transform="translate(222.234375 0)"/>
       <use xlink:href="#DejaVuSans-1c" transform="translate(285.859375 0)"/>
       <use xlink:href="#DejaVuSans-19" transform="translate(349.484375 0)"/>
      </g>
      <!-- K=4096 -->
      <g transform="translate(36.584361 262.913672) scale(0.12 -0.12)">
       <defs>
        <path id="DejaVuSans-2e" d="M 628 4666 
L 1259 4666 
L 1259 2694 
L 3353 4666 
L 4166 4666 
L 1850 2491 
L 4331 0 
L 3500 0 
L 1259 2247 
L 1259 0 
L 628 0 
L 628 4666 
z
" transform="scale(0.015625)"/>
       </defs>
       <use xlink:href="#DejaVuSans-2e"/>
       <use xlink:href="#DejaVuSans-20" transform="translate(65.578125 0)"/>
       <use xlink:href="#DejaVuSans-17" transform="translate(149.375 0)"/>
       <use xlink:href="#DejaVuSans-13" transform="translate(213 0)"/>
       <use xlink:href="#DejaVuSans-1c" transform="translate(276.625 0)"/>
       <use xlink:href="#DejaVuSans-19" transform="translate(340.25 0)"/>
      </g>
     </g>
    </g>
    <g id="xtick_2">
     <g id="line2d_2"/>
     <g id="text_2">
      <!-- N=24576 -->
      <g transform="translate(94.633699 248.511328) scale(0.12 -0.12)">
       <defs>
        <path id="DejaVuSans-15" d="M 1228 531 
L 3431 531 
L 3431 0 
L 469 0 
L 469 531 
Q 828 903 1448 1529 
Q 2069 2156 2228 2338 
Q 2531 2678 2651 2914 
Q 2772 3150 2772 3378 
Q 2772 3750 2511 3984 
Q 2250 4219 1831 4219 
Q 1534 4219 1204 4116 
Q 875 4013 500 3803 
L 500 4441 
Q 881 4594 1212 4672 
Q 1544 4750 1819 4750 
Q 2544 4750 2975 4387 
Q 3406 4025 3406 3419 
Q 3406 3131 3298 2873 
Q 3191 2616 2906 2266 
Q 2828 2175 2409 1742 
Q 1991 1309 1228 531 
z
" transform="scale(0.015625)"/>
        <path id="DejaVuSans-18" d="M 691 4666 
L 3169 4666 
L 3169 4134 
L 1269 4134 
L 1269 2991 
Q 1406 3038 1543 3061 
Q 1681 3084 1819 3084 
Q 2600 3084 3056 2656 
Q 3513 2228 3513 1497 
Q 3513 744 3044 326 
Q 2575 -91 1722 -91 
Q 1428 -91 1123 -41 
Q 819 9 494 109 
L 494 744 
Q 775 591 1075 516 
Q 1375 441 1709 441 
Q 2250 441 2565 725 
Q 2881 1009 2881 1497 
Q 2881 1984 2565 2268 
Q 2250 2553 1709 2553 
Q 1456 2553 1204 2497 
Q 953 2441 691 2322 
L 691 4666 
z
" transform="scale(0.015625)"/>
        <path id="DejaVuSans-1a" d="M 525 4666 
L 3525 4666 
L 3525 4397 
L 1831 0 
L 1172 0 
L 2766 4134 
L 525 4134 
L 525 4666 
z
" transform="scale(0.015625)"/>
       </defs>
       <use xlink:href="#DejaVuSans-31"/>
       <use xlink:href="#DejaVuSans-20" transform="translate(74.8125 0)"/>
       <use xlink:href="#DejaVuSans-15" transform="translate(158.609375 0)"/>
       <use xlink:href="#DejaVuSans-17" transform="translate(222.234375 0)"/>
       <use xlink:href="#DejaVuSans-18" transform="translate(285.859375 0)"/>
       <use xlink:href="#DejaVuSans-1a" transform="translate(349.484375 0)"/>
       <use xlink:href="#DejaVuSans-19" transform="translate(413.109375 0)"/>
      </g>
      <!-- K=4096 -->
      <g transform="translate(99.005262 262.913672) scale(0.12 -0.12)">
       <use xlink:href="#DejaVuSans-2e"/>
       <use xlink:href="#DejaVuSans-20" transform="translate(65.578125 0)"/>
       <use xlink:href="#DejaVuSans-17" transform="translate(149.375 0)"/>
       <use xlink:href="#DejaVuSans-13" transform="translate(213 0)"/>
       <use xlink:href="#DejaVuSans-1c" transform="translate(276.625 0)"/>
       <use xlink:href="#DejaVuSans-19" transform="translate(340.25 0)"/>
      </g>
     </g>
    </g>
    <g id="xtick_3">
     <g id="line2d_3"/>
     <g id="text_3">
      <!-- N=4096 -->
      <g transform="translate(160.872101 248.511328) scale(0.12 -0.12)">
       <use xlink:href="#DejaVuSans-31"/>
       <use xlink:href="#DejaVuSans-20" transform="translate(74.8125 0)"/>
       <use xlink:href="#DejaVuSans-17" transform="translate(158.609375 0)"/>
       <use xlink:href="#DejaVuSans-13" transform="translate(222.234375 0)"/>
       <use xlink:href="#DejaVuSans-1c" transform="translate(285.859375 0)"/>
       <use xlink:href="#DejaVuSans-19" transform="translate(349.484375 0)"/>
      </g>
      <!-- K=12288 -->
      <g transform="translate(157.608663 262.913672) scale(0.12 -0.12)">
       <defs>
        <path id="DejaVuSans-14" d="M 794 531 
L 1825 531 
L 1825 4091 
L 703 3866 
L 703 4441 
L 1819 4666 
L 2450 4666 
L 2450 531 
L 3481 531 
L 3481 0 
L 794 0 
L 794 531 
z
" transform="scale(0.015625)"/>
        <path id="DejaVuSans-1b" d="M 2034 2216 
Q 1584 2216 1326 1975 
Q 1069 1734 1069 1313 
Q 1069 891 1326 650 
Q 1584 409 2034 409 
Q 2484 409 2743 651 
Q 3003 894 3003 1313 
Q 3003 1734 2745 1975 
Q 2488 2216 2034 2216 
z
M 1403 2484 
Q 997 2584 770 2862 
Q 544 3141 544 3541 
Q 544 4100 942 4425 
Q 1341 4750 2034 4750 
Q 2731 4750 3128 4425 
Q 3525 4100 3525 3541 
Q 3525 3141 3298 2862 
Q 3072 2584 2669 2484 
Q 3125 2378 3379 2068 
Q 3634 1759 3634 1313 
Q 3634 634 3220 271 
Q 2806 -91 2034 -91 
Q 1263 -91 848 271 
Q 434 634 434 1313 
Q 434 1759 690 2068 
Q 947 2378 1403 2484 
z
M 1172 3481 
Q 1172 3119 1398 2916 
Q 1625 2713 2034 2713 
Q 2441 2713 2670 2916 
Q 2900 3119 2900 3481 
Q 2900 3844 2670 4047 
Q 2441 4250 2034 4250 
Q 1625 4250 1398 4047 
Q 1172 3844 1172 3481 
z
" transform="scale(0.015625)"/>
       </defs>
       <use xlink:href="#DejaVuSans-2e"/>
       <use xlink:href="#DejaVuSans-20" transform="translate(65.578125 0)"/>
       <use xlink:href="#DejaVuSans-14" transform="translate(149.375 0)"/>
       <use xlink:href="#DejaVuSans-15" transform="translate(213 0)"/>
       <use xlink:href="#DejaVuSans-15" transform="translate(276.625 0)"/>
       <use xlink:href="#DejaVuSans-1b" transform="translate(340.25 0)"/>
       <use xlink:href="#DejaVuSans-1b" transform="translate(403.875 0)"/>
      </g>
     </g>
    </g>
   </g>
   <g id="matplotlib.axis_2">
    <g id="ytick_1">
     <g id="line2d_4">
      <path d="M 29.856094 234.692969 
L 216.61943 234.692969 
" clip-path="url(#p1a313a992f)" style="fill: none; stroke: #b0b0b0; stroke-width: 0.4; stroke-linecap: square"/>
     </g>
     <g id="line2d_5"/>
     <g id="text_4">
      <!-- 0 -->
      <g transform="translate(18.721094 239.251562) scale(0.12 -0.12)">
       <use xlink:href="#DejaVuSans-13"/>
      </g>
     </g>
    </g>
    <g id="ytick_2">
     <g id="line2d_6">
      <path d="M 29.856094 203.753638 
L 216.61943 203.753638 
" clip-path="url(#p1a313a992f)" style="fill: none; stroke: #b0b0b0; stroke-width: 0.4; stroke-linecap: square"/>
     </g>
     <g id="line2d_7"/>
     <g id="text_5">
      <!-- 1 -->
      <g transform="translate(18.721094 208.312232) scale(0.12 -0.12)">
       <use xlink:href="#DejaVuSans-14"/>
      </g>
     </g>
    </g>
    <g id="ytick_3">
     <g id="line2d_8">
      <path d="M 29.856094 172.814308 
L 216.61943 172.814308 
" clip-path="url(#p1a313a992f)" style="fill: none; stroke: #b0b0b0; stroke-width: 0.4; stroke-linecap: square"/>
     </g>
     <g id="line2d_9"/>
     <g id="text_6">
      <!-- 2 -->
      <g transform="translate(18.721094 177.372902) scale(0.12 -0.12)">
       <use xlink:href="#DejaVuSans-15"/>
      </g>
     </g>
    </g>
    <g id="ytick_4">
     <g id="line2d_10">
      <path d="M 29.856094 141.874978 
L 216.61943 141.874978 
" clip-path="url(#p1a313a992f)" style="fill: none; stroke: #b0b0b0; stroke-width: 0.4; stroke-linecap: square"/>
     </g>
     <g id="line2d_11"/>
     <g id="text_7">
      <!-- 3 -->
      <g transform="translate(18.721094 146.433571) scale(0.12 -0.12)">
       <defs>
        <path id="DejaVuSans-16" d="M 2597 2516 
Q 3050 2419 3304 2112 
Q 3559 1806 3559 1356 
Q 3559 666 3084 287 
Q 2609 -91 1734 -91 
Q 1441 -91 1130 -33 
Q 819 25 488 141 
L 488 750 
Q 750 597 1062 519 
Q 1375 441 1716 441 
Q 2309 441 2620 675 
Q 2931 909 2931 1356 
Q 2931 1769 2642 2001 
Q 2353 2234 1838 2234 
L 1294 2234 
L 1294 2753 
L 1863 2753 
Q 2328 2753 2575 2939 
Q 2822 3125 2822 3475 
Q 2822 3834 2567 4026 
Q 2313 4219 1838 4219 
Q 1578 4219 1281 4162 
Q 984 4106 628 3988 
L 628 4550 
Q 988 4650 1302 4700 
Q 1616 4750 1894 4750 
Q 2613 4750 3031 4423 
Q 3450 4097 3450 3541 
Q 3450 3153 3228 2886 
Q 3006 2619 2597 2516 
z
" transform="scale(0.015625)"/>
       </defs>
       <use xlink:href="#DejaVuSans-16"/>
      </g>
     </g>
    </g>
    <g id="ytick_5">
     <g id="line2d_12">
      <path d="M 29.856094 110.935647 
L 216.61943 110.935647 
" clip-path="url(#p1a313a992f)" style="fill: none; stroke: #b0b0b0; stroke-width: 0.4; stroke-linecap: square"/>
     </g>
     <g id="line2d_13"/>
     <g id="text_8">
      <!-- 4 -->
      <g transform="translate(18.721094 115.494241) scale(0.12 -0.12)">
       <use xlink:href="#DejaVuSans-17"/>
      </g>
     </g>
    </g>
    <g id="ytick_6">
     <g id="line2d_14">
      <path d="M 29.856094 79.996317 
L 216.61943 79.996317 
" clip-path="url(#p1a313a992f)" style="fill: none; stroke: #b0b0b0; stroke-width: 0.4; stroke-linecap: square"/>
     </g>
     <g id="line2d_15"/>
     <g id="text_9">
      <!-- 5 -->
      <g transform="translate(18.721094 84.554911) scale(0.12 -0.12)">
       <use xlink:href="#DejaVuSans-18"/>
      </g>
     </g>
    </g>
    <g id="ytick_7">
     <g id="line2d_16">
      <path d="M 29.856094 49.056987 
L 216.61943 49.056987 
" clip-path="url(#p1a313a992f)" style="fill: none; stroke: #b0b0b0; stroke-width: 0.4; stroke-linecap: square"/>
     </g>
     <g id="line2d_17"/>
     <g id="text_10">
      <!-- 6 -->
      <g transform="translate(18.721094 53.61558) scale(0.12 -0.12)">
       <use xlink:href="#DejaVuSans-19"/>
      </g>
     </g>
    </g>
    <g id="ytick_8">
     <g id="line2d_18">
      <path d="M 29.856094 18.117656 
L 216.61943 18.117656 
" clip-path="url(#p1a313a992f)" style="fill: none; stroke: #b0b0b0; stroke-width: 0.4; stroke-linecap: square"/>
     </g>
     <g id="line2d_19"/>
     <g id="text_11">
      <!-- 7 -->
      <g transform="translate(18.721094 22.67625) scale(0.12 -0.12)">
       <use xlink:href="#DejaVuSans-1a"/>
      </g>
     </g>
    </g>
    <g id="text_12">
     <!-- Speedup vs. BF16 (M=1024) -->
     <g transform="translate(11.357813 226.838906) rotate(-90) scale(0.14 -0.14)">
      <defs>
       <path id="DejaVuSans-36" d="M 3425 4513 
L 3425 3897 
Q 3066 4069 2747 4153 
Q 2428 4238 2131 4238 
Q 1616 4238 1336 4038 
Q 1056 3838 1056 3469 
Q 1056 3159 1242 3001 
Q 1428 2844 1947 2747 
L 2328 2669 
Q 3034 2534 3370 2195 
Q 3706 1856 3706 1288 
Q 3706 609 3251 259 
Q 2797 -91 1919 -91 
Q 1588 -91 1214 -16 
Q 841 59 441 206 
L 441 856 
Q 825 641 1194 531 
Q 1563 422 1919 422 
Q 2459 422 2753 634 
Q 3047 847 3047 1241 
Q 3047 1584 2836 1778 
Q 2625 1972 2144 2069 
L 1759 2144 
Q 1053 2284 737 2584 
Q 422 2884 422 3419 
Q 422 4038 858 4394 
Q 1294 4750 2059 4750 
Q 2388 4750 2728 4690 
Q 3069 4631 3425 4513 
z
" transform="scale(0.015625)"/>
       <path id="DejaVuSans-53" d="M 1159 525 
L 1159 -1331 
L 581 -1331 
L 581 3500 
L 1159 3500 
L 1159 2969 
Q 1341 3281 1617 3432 
Q 1894 3584 2278 3584 
Q 2916 3584 3314 3078 
Q 3713 2572 3713 1747 
Q 3713 922 3314 415 
Q 2916 -91 2278 -91 
Q 1894 -91 1617 61 
Q 1341 213 1159 525 
z
M 3116 1747 
Q 3116 2381 2855 2742 
Q 2594 3103 2138 3103 
Q 1681 3103 1420 2742 
Q 1159 2381 1159 1747 
Q 1159 1113 1420 752 
Q 1681 391 2138 391 
Q 2594 391 2855 752 
Q 3116 1113 3116 1747 
z
" transform="scale(0.015625)"/>
       <path id="DejaVuSans-48" d="M 3597 1894 
L 3597 1613 
L 953 1613 
Q 991 1019 1311 708 
Q 1631 397 2203 397 
Q 2534 397 2845 478 
Q 3156 559 3463 722 
L 3463 178 
Q 3153 47 2828 -22 
Q 2503 -91 2169 -91 
Q 1331 -91 842 396 
Q 353 884 353 1716 
Q 353 2575 817 3079 
Q 1281 3584 2069 3584 
Q 2775 3584 3186 3129 
Q 3597 2675 3597 1894 
z
M 3022 2063 
Q 3016 2534 2758 2815 
Q 2500 3097 2075 3097 
Q 1594 3097 1305 2825 
Q 1016 2553 972 2059 
L 3022 2063 
z
" transform="scale(0.015625)"/>
       <path id="DejaVuSans-47" d="M 2906 2969 
L 2906 4863 
L 3481 4863 
L 3481 0 
L 2906 0 
L 2906 525 
Q 2725 213 2448 61 
Q 2172 -91 1784 -91 
Q 1150 -91 751 415 
Q 353 922 353 1747 
Q 353 2572 751 3078 
Q 1150 3584 1784 3584 
Q 2172 3584 2448 3432 
Q 2725 3281 2906 2969 
z
M 947 1747 
Q 947 1113 1208 752 
Q 1469 391 1925 391 
Q 2381 391 2643 752 
Q 2906 1113 2906 1747 
Q 2906 2381 2643 2742 
Q 2381 3103 1925 3103 
Q 1469 3103 1208 2742 
Q 947 2381 947 1747 
z
" transform="scale(0.015625)"/>
       <path id="DejaVuSans-58" d="M 544 1381 
L 544 3500 
L 1119 3500 
L 1119 1403 
Q 1119 906 1312 657 
Q 1506 409 1894 409 
Q 2359 409 2629 706 
Q 2900 1003 2900 1516 
L 2900 3500 
L 3475 3500 
L 3475 0 
L 2900 0 
L 2900 538 
Q 2691 219 2414 64 
Q 2138 -91 1772 -91 
Q 1169 -91 856 284 
Q 544 659 544 1381 
z
M 1991 3584 
L 1991 3584 
z
" transform="scale(0.015625)"/>
       <path id="DejaVuSans-3" transform="scale(0.015625)"/>
       <path id="DejaVuSans-59" d="M 191 3500 
L 800 3500 
L 1894 563 
L 2988 3500 
L 3597 3500 
L 2284 0 
L 1503 0 
L 191 3500 
z
" transform="scale(0.015625)"/>
       <path id="DejaVuSans-56" d="M 2834 3397 
L 2834 2853 
Q 2591 2978 2328 3040 
Q 2066 3103 1784 3103 
Q 1356 3103 1142 2972 
Q 928 2841 928 2578 
Q 928 2378 1081 2264 
Q 1234 2150 1697 2047 
L 1894 2003 
Q 2506 1872 2764 1633 
Q 3022 1394 3022 966 
Q 3022 478 2636 193 
Q 2250 -91 1575 -91 
Q 1294 -91 989 -36 
Q 684 19 347 128 
L 347 722 
Q 666 556 975 473 
Q 1284 391 1588 391 
Q 1994 391 2212 530 
Q 2431 669 2431 922 
Q 2431 1156 2273 1281 
Q 2116 1406 1581 1522 
L 1381 1569 
Q 847 1681 609 1914 
Q 372 2147 372 2553 
Q 372 3047 722 3315 
Q 1072 3584 1716 3584 
Q 2034 3584 2315 3537 
Q 2597 3491 2834 3397 
z
" transform="scale(0.015625)"/>
       <path id="DejaVuSans-11" d="M 684 794 
L 1344 794 
L 1344 0 
L 684 0 
L 684 794 
z
" transform="scale(0.015625)"/>
       <path id="DejaVuSans-25" d="M 1259 2228 
L 1259 519 
L 2272 519 
Q 2781 519 3026 730 
Q 3272 941 3272 1375 
Q 3272 1813 3026 2020 
Q 2781 2228 2272 2228 
L 1259 2228 
z
M 1259 4147 
L 1259 2741 
L 2194 2741 
Q 2656 2741 2882 2914 
Q 3109 3088 3109 3444 
Q 3109 3797 2882 3972 
Q 2656 4147 2194 4147 
L 1259 4147 
z
M 628 4666 
L 2241 4666 
Q 2963 4666 3353 4366 
Q 3744 4066 3744 3513 
Q 3744 3084 3544 2831 
Q 3344 2578 2956 2516 
Q 3422 2416 3680 2098 
Q 3938 1781 3938 1306 
Q 3938 681 3513 340 
Q 3088 0 2303 0 
L 628 0 
L 628 4666 
z
" transform="scale(0.015625)"/>
       <path id="DejaVuSans-29" d="M 628 4666 
L 3309 4666 
L 3309 4134 
L 1259 4134 
L 1259 2759 
L 3109 2759 
L 3109 2228 
L 1259 2228 
L 1259 0 
L 628 0 
L 628 4666 
z
" transform="scale(0.015625)"/>
       <path id="DejaVuSans-b" d="M 1984 4856 
Q 1566 4138 1362 3434 
Q 1159 2731 1159 2009 
Q 1159 1288 1364 580 
Q 1569 -128 1984 -844 
L 1484 -844 
Q 1016 -109 783 600 
Q 550 1309 550 2009 
Q 550 2706 781 3412 
Q 1013 4119 1484 4856 
L 1984 4856 
z
" transform="scale(0.015625)"/>
       <path id="DejaVuSans-30" d="M 628 4666 
L 1569 4666 
L 2759 1491 
L 3956 4666 
L 4897 4666 
L 4897 0 
L 4281 0 
L 4281 4097 
L 3078 897 
L 2444 897 
L 1241 4097 
L 1241 0 
L 628 0 
L 628 4666 
z
" transform="scale(0.015625)"/>
       <path id="DejaVuSans-c" d="M 513 4856 
L 1013 4856 
Q 1481 4119 1714 3412 
Q 1947 2706 1947 2009 
Q 1947 1309 1714 600 
Q 1481 -109 1013 -844 
L 513 -844 
Q 928 -128 1133 580 
Q 1338 1288 1338 2009 
Q 1338 2731 1133 3434 
Q 928 4138 513 4856 
z
" transform="scale(0.015625)"/>
      </defs>
      <use xlink:href="#DejaVuSans-36"/>
      <use xlink:href="#DejaVuSans-53" transform="translate(63.484375 0)"/>
      <use xlink:href="#DejaVuSans-48" transform="translate(126.96875 0)"/>
      <use xlink:href="#DejaVuSans-48" transform="translate(188.5 0)"/>
      <use xlink:href="#DejaVuSans-47" transform="translate(250.03125 0)"/>
      <use xlink:href="#DejaVuSans-58" transform="translate(313.515625 0)"/>
      <use xlink:href="#DejaVuSans-53" transform="translate(376.890625 0)"/>
      <use xlink:href="#DejaVuSans-3" transform="translate(440.375 0)"/>
      <use xlink:href="#DejaVuSans-59" transform="translate(472.15625 0)"/>
      <use xlink:href="#DejaVuSans-56" transform="translate(531.34375 0)"/>
      <use xlink:href="#DejaVuSans-11" transform="translate(583.4375 0)"/>
      <use xlink:href="#DejaVuSans-3" transform="translate(615.21875 0)"/>
      <use xlink:href="#DejaVuSans-25" transform="translate(647 0)"/>
      <use xlink:href="#DejaVuSans-29" transform="translate(715.609375 0)"/>
      <use xlink:href="#DejaVuSans-14" transform="translate(773.125 0)"/>
      <use xlink:href="#DejaVuSans-19" transform="translate(836.75 0)"/>
      <use xlink:href="#DejaVuSans-3" transform="translate(900.375 0)"/>
      <use xlink:href="#DejaVuSans-b" transform="translate(932.15625 0)"/>
      <use xlink:href="#DejaVuSans-30" transform="translate(971.171875 0)"/>
      <use xlink:href="#DejaVuSans-20" transform="translate(1057.453125 0)"/>
      <use xlink:href="#DejaVuSans-14" transform="translate(1141.25 0)"/>
      <use xlink:href="#DejaVuSans-13" transform="translate(1204.875 0)"/>
      <use xlink:href="#DejaVuSans-15" transform="translate(1268.5 0)"/>
      <use xlink:href="#DejaVuSans-17" transform="translate(1332.125 0)"/>
      <use xlink:href="#DejaVuSans-c" transform="translate(1395.75 0)"/>
     </g>
    </g>
   </g>
   <g id="patch_3">
    <path d="M 38.345336 234.692969 
L 53.326353 234.692969 
L 53.326353 42.559727 
L 38.345336 42.559727 
z
" clip-path="url(#p1a313a992f)" style="fill: #1e90ff; stroke: #000000; stroke-width: 0.3; stroke-linejoin: miter"/>
   </g>
   <g id="patch_4">
    <path d="M 100.766238 234.692969 
L 115.747254 234.692969 
L 115.747254 65.733286 
L 100.766238 65.733286 
z
" clip-path="url(#p1a313a992f)" style="fill: #1e90ff; stroke: #000000; stroke-width: 0.3; stroke-linejoin: miter"/>
   </g>
   <g id="patch_5">
    <path d="M 163.187139 234.692969 
L 178.168155 234.692969 
L 178.168155 29.627087 
L 163.187139 29.627087 
z
" clip-path="url(#p1a313a992f)" style="fill: #1e90ff; stroke: #000000; stroke-width: 0.3; stroke-linejoin: miter"/>
   </g>
   <g id="patch_6">
    <path d="M 53.326353 234.692969 
L 68.307369 234.692969 
L 68.307369 81.852677 
L 53.326353 81.852677 
z
" clip-path="url(#p1a313a992f)" style="fill: #ff0000; stroke: #000000; stroke-width: 0.3; stroke-linejoin: miter"/>
   </g>
   <g id="patch_7">
    <path d="M 115.747254 234.692969 
L 130.72827 234.692969 
L 130.72827 74.458177 
L 115.747254 74.458177 
z
" clip-path="url(#p1a313a992f)" style="fill: #ff0000; stroke: #000000; stroke-width: 0.3; stroke-linejoin: miter"/>
   </g>
   <g id="patch_8">
    <path d="M 178.168155 234.692969 
L 193.149171 234.692969 
L 193.149171 63.907865 
L 178.168155 63.907865 
z
" clip-path="url(#p1a313a992f)" style="fill: #ff0000; stroke: #000000; stroke-width: 0.3; stroke-linejoin: miter"/>
   </g>
   <g id="patch_9">
    <path d="M 68.307369 234.692969 
L 83.288385 234.692969 
L 83.288385 84.575338 
L 68.307369 84.575338 
z
" clip-path="url(#p1a313a992f)" style="fill: #228b22; stroke: #000000; stroke-width: 0.3; stroke-linejoin: miter"/>
   </g>
   <g id="patch_10">
    <path d="M 130.72827 234.692969 
L 145.709286 234.692969 
L 145.709286 74.860388 
L 130.72827 74.860388 
z
" clip-path="url(#p1a313a992f)" style="fill: #228b22; stroke: #000000; stroke-width: 0.3; stroke-linejoin: miter"/>
   </g>
   <g id="patch_11">
    <path d="M 193.149171 234.692969 
L 208.130188 234.692969 
L 208.130188 67.713403 
L 193.149171 67.713403 
z
" clip-path="url(#p1a313a992f)" style="fill: #228b22; stroke: #000000; stroke-width: 0.3; stroke-linejoin: miter"/>
   </g>
   <g id="line2d_20">
    <path d="M 29.856094 203.753638 
L 216.61943 203.753638 
" clip-path="url(#p1a313a992f)" style="fill: none; stroke-dasharray: 3.7,1.6; stroke-dashoffset: 0; stroke: #000000"/>
   </g>
   <g id="patch_12">
    <path d="M 29.856094 234.692969 
L 29.856094 18.117656 
" style="fill: none; stroke: #000000; stroke-width: 0.8; stroke-linejoin: miter; stroke-linecap: square"/>
   </g>
   <g id="patch_13">
    <path d="M 216.61943 234.692969 
L 216.61943 18.117656 
" style="fill: none; stroke: #000000; stroke-width: 0.8; stroke-linejoin: miter; stroke-linecap: square"/>
   </g>
   <g id="patch_14">
    <path d="M 29.856094 234.692969 
L 216.61943 234.692969 
" style="fill: none; stroke: #000000; stroke-width: 0.8; stroke-linejoin: miter; stroke-linecap: square"/>
   </g>
   <g id="patch_15">
    <path d="M 29.856094 18.117656 
L 216.61943 18.117656 
" style="fill: none; stroke: #000000; stroke-width: 0.8; stroke-linejoin: miter; stroke-linecap: square"/>
   </g>
   <g id="text_13">
    <!-- Qwen3-8B -->
    <g transform="translate(84.436981 12.117656) scale(0.15 -0.15)">
     <defs>
      <path id="DejaVuSans-34" d="M 2522 4238 
Q 1834 4238 1429 3725 
Q 1025 3213 1025 2328 
Q 1025 1447 1429 934 
Q 1834 422 2522 422 
Q 3209 422 3611 934 
Q 4013 1447 4013 2328 
Q 4013 3213 3611 3725 
Q 3209 4238 2522 4238 
z
M 3406 84 
L 4238 -825 
L 3475 -825 
L 2784 -78 
Q 2681 -84 2626 -87 
Q 2572 -91 2522 -91 
Q 1538 -91 948 567 
Q 359 1225 359 2328 
Q 359 3434 948 4092 
Q 1538 4750 2522 4750 
Q 3503 4750 4090 4092 
Q 4678 3434 4678 2328 
Q 4678 1516 4351 937 
Q 4025 359 3406 84 
z
" transform="scale(0.015625)"/>
      <path id="DejaVuSans-5a" d="M 269 3500 
L 844 3500 
L 1563 769 
L 2278 3500 
L 2956 3500 
L 3675 769 
L 4391 3500 
L 4966 3500 
L 4050 0 
L 3372 0 
L 2619 2869 
L 1863 0 
L 1184 0 
L 269 3500 
z
" transform="scale(0.015625)"/>
      <path id="DejaVuSans-51" d="M 3513 2113 
L 3513 0 
L 2938 0 
L 2938 2094 
Q 2938 2591 2744 2837 
Q 2550 3084 2163 3084 
Q 1697 3084 1428 2787 
Q 1159 2491 1159 1978 
L 1159 0 
L 581 0 
L 581 3500 
L 1159 3500 
L 1159 2956 
Q 1366 3272 1645 3428 
Q 1925 3584 2291 3584 
Q 2894 3584 3203 3211 
Q 3513 2838 3513 2113 
z
" transform="scale(0.015625)"/>
      <path id="DejaVuSans-10" d="M 313 2009 
L 1997 2009 
L 1997 1497 
L 313 1497 
L 313 2009 
z
" transform="scale(0.015625)"/>
     </defs>
     <use xlink:href="#DejaVuSans-34"/>
     <use xlink:href="#DejaVuSans-5a" transform="translate(78.71875 0)"/>
     <use xlink:href="#DejaVuSans-48" transform="translate(160.5 0)"/>
     <use xlink:href="#DejaVuSans-51" transform="translate(222.03125 0)"/>
     <use xlink:href="#DejaVuSans-16" transform="translate(285.40625 0)"/>
     <use xlink:href="#DejaVuSans-10" transform="translate(349.03125 0)"/>
     <use xlink:href="#DejaVuSans-1b" transform="translate(385.109375 0)"/>
     <use xlink:href="#DejaVuSans-25" transform="translate(448.734375 0)"/>
    </g>
   </g>
  </g>
  <g id="axes_2">
   <g id="patch_16">
    <path d="M 232.807426 234.692969 
L 419.570763 234.692969 
L 419.570763 18.117656 
L 232.807426 18.117656 
z
" style="fill: #ffffff"/>
   </g>
   <g id="matplotlib.axis_3">
    <g id="xtick_4">
     <g id="line2d_21"/>
     <g id="text_14">
      <!-- N=5120 -->
      <g transform="translate(238.981631 248.511328) scale(0.12 -0.12)">
       <use xlink:href="#DejaVuSans-31"/>
       <use xlink:href="#DejaVuSans-20" transform="translate(74.8125 0)"/>
       <use xlink:href="#DejaVuSans-18" transform="translate(158.609375 0)"/>
       <use xlink:href="#DejaVuSans-14" transform="translate(222.234375 0)"/>
       <use xlink:href="#DejaVuSans-15" transform="translate(285.859375 0)"/>
       <use xlink:href="#DejaVuSans-13" transform="translate(349.484375 0)"/>
      </g>
      <!-- K=5120 -->
      <g transform="translate(239.535693 262.913672) scale(0.12 -0.12)">
       <use xlink:href="#DejaVuSans-2e"/>
       <use xlink:href="#DejaVuSans-20" transform="translate(65.578125 0)"/>
       <use xlink:href="#DejaVuSans-18" transform="translate(149.375 0)"/>
       <use xlink:href="#DejaVuSans-14" transform="translate(213 0)"/>
       <use xlink:href="#DejaVuSans-15" transform="translate(276.625 0)"/>
       <use xlink:href="#DejaVuSans-13" transform="translate(340.25 0)"/>
      </g>
     </g>
    </g>
    <g id="xtick_5">
     <g id="line2d_22"/>
     <g id="text_15">
      <!-- N=34816 -->
      <g transform="translate(297.585032 248.511328) scale(0.12 -0.12)">
       <use xlink:href="#DejaVuSans-31"/>
       <use xlink:href="#DejaVuSans-20" transform="translate(74.8125 0)"/>
       <use xlink:href="#DejaVuSans-16" transform="translate(158.609375 0)"/>
       <use xlink:href="#DejaVuSans-17" transform="translate(222.234375 0)"/>
       <use xlink:href="#DejaVuSans-1b" transform="translate(285.859375 0)"/>
       <use xlink:href="#DejaVuSans-14" transform="translate(349.484375 0)"/>
       <use xlink:href="#DejaVuSans-19" transform="translate(413.109375 0)"/>
      </g>
      <!-- K=5120 -->
      <g transform="translate(301.956595 262.913672) scale(0.12 -0.12)">
       <use xlink:href="#DejaVuSans-2e"/>
       <use xlink:href="#DejaVuSans-20" transform="translate(65.578125 0)"/>
       <use xlink:href="#DejaVuSans-18" transform="translate(149.375 0)"/>
       <use xlink:href="#DejaVuSans-14" transform="translate(213 0)"/>
       <use xlink:href="#DejaVuSans-15" transform="translate(276.625 0)"/>
       <use xlink:href="#DejaVuSans-13" transform="translate(340.25 0)"/>
      </g>
     </g>
    </g>
    <g id="xtick_6">
     <g id="line2d_23"/>
     <g id="text_16">
      <!-- N=5120 -->
      <g transform="translate(363.823433 248.511328) scale(0.12 -0.12)">
       <use xlink:href="#DejaVuSans-31"/>
       <use xlink:href="#DejaVuSans-20" transform="translate(74.8125 0)"/>
       <use xlink:href="#DejaVuSans-18" transform="translate(158.609375 0)"/>
       <use xlink:href="#DejaVuSans-14" transform="translate(222.234375 0)"/>
       <use xlink:href="#DejaVuSans-15" transform="translate(285.859375 0)"/>
       <use xlink:href="#DejaVuSans-13" transform="translate(349.484375 0)"/>
      </g>
      <!-- K=17408 -->
      <g transform="translate(360.559996 262.913672) scale(0.12 -0.12)">
       <use xlink:href="#DejaVuSans-2e"/>
       <use xlink:href="#DejaVuSans-20" transform="translate(65.578125 0)"/>
       <use xlink:href="#DejaVuSans-14" transform="translate(149.375 0)"/>
       <use xlink:href="#DejaVuSans-1a" transform="translate(213 0)"/>
       <use xlink:href="#DejaVuSans-17" transform="translate(276.625 0)"/>
       <use xlink:href="#DejaVuSans-13" transform="translate(340.25 0)"/>
       <use xlink:href="#DejaVuSans-1b" transform="translate(403.875 0)"/>
      </g>
     </g>
    </g>
   </g>
   <g id="matplotlib.axis_4">
    <g id="ytick_9">
     <g id="line2d_24">
      <path d="M 232.807426 234.692969 
L 419.570763 234.692969 
" clip-path="url(#p967a201ea4)" style="fill: none; stroke: #b0b0b0; stroke-width: 0.4; stroke-linecap: square"/>
     </g>
     <g id="line2d_25"/>
    </g>
    <g id="ytick_10">
     <g id="line2d_26">
      <path d="M 232.807426 203.753638 
L 419.570763 203.753638 
" clip-path="url(#p967a201ea4)" style="fill: none; stroke: #b0b0b0; stroke-width: 0.4; stroke-linecap: square"/>
     </g>
     <g id="line2d_27"/>
    </g>
    <g id="ytick_11">
     <g id="line2d_28">
      <path d="M 232.807426 172.814308 
L 419.570763 172.814308 
" clip-path="url(#p967a201ea4)" style="fill: none; stroke: #b0b0b0; stroke-width: 0.4; stroke-linecap: square"/>
     </g>
     <g id="line2d_29"/>
    </g>
    <g id="ytick_12">
     <g id="line2d_30">
      <path d="M 232.807426 141.874978 
L 419.570763 141.874978 
" clip-path="url(#p967a201ea4)" style="fill: none; stroke: #b0b0b0; stroke-width: 0.4; stroke-linecap: square"/>
     </g>
     <g id="line2d_31"/>
    </g>
    <g id="ytick_13">
     <g id="line2d_32">
      <path d="M 232.807426 110.935647 
L 419.570763 110.935647 
" clip-path="url(#p967a201ea4)" style="fill: none; stroke: #b0b0b0; stroke-width: 0.4; stroke-linecap: square"/>
     </g>
     <g id="line2d_33"/>
    </g>
    <g id="ytick_14">
     <g id="line2d_34">
      <path d="M 232.807426 79.996317 
L 419.570763 79.996317 
" clip-path="url(#p967a201ea4)" style="fill: none; stroke: #b0b0b0; stroke-width: 0.4; stroke-linecap: square"/>
     </g>
     <g id="line2d_35"/>
    </g>
    <g id="ytick_15">
     <g id="line2d_36">
      <path d="M 232.807426 49.056987 
L 419.570763 49.056987 
" clip-path="url(#p967a201ea4)" style="fill: none; stroke: #b0b0b0; stroke-width: 0.4; stroke-linecap: square"/>
     </g>
     <g id="line2d_37"/>
    </g>
    <g id="ytick_16">
     <g id="line2d_38">
      <path d="M 232.807426 18.117656 
L 419.570763 18.117656 
" clip-path="url(#p967a201ea4)" style="fill: none; stroke: #b0b0b0; stroke-width: 0.4; stroke-linecap: square"/>
     </g>
     <g id="line2d_39"/>
    </g>
   </g>
   <g id="patch_17">
    <path d="M 241.296669 234.692969 
L 256.277685 234.692969 
L 256.277685 53.295675 
L 241.296669 53.295675 
z
" clip-path="url(#p967a201ea4)" style="fill: #1e90ff; stroke: #000000; stroke-width: 0.3; stroke-linejoin: miter"/>
   </g>
   <g id="patch_18">
    <path d="M 303.71757 234.692969 
L 318.698587 234.692969 
L 318.698587 71.457062 
L 303.71757 71.457062 
z
" clip-path="url(#p967a201ea4)" style="fill: #1e90ff; stroke: #000000; stroke-width: 0.3; stroke-linejoin: miter"/>
   </g>
   <g id="patch_19">
    <path d="M 366.138471 234.692969 
L 381.119488 234.692969 
L 381.119488 48.128807 
L 366.138471 48.128807 
z
" clip-path="url(#p967a201ea4)" style="fill: #1e90ff; stroke: #000000; stroke-width: 0.3; stroke-linejoin: miter"/>
   </g>
   <g id="patch_20">
    <path d="M 256.277685 234.692969 
L 271.258702 234.692969 
L 271.258702 83.894673 
L 256.277685 83.894673 
z
" clip-path="url(#p967a201ea4)" style="fill: #ff0000; stroke: #000000; stroke-width: 0.3; stroke-linejoin: miter"/>
   </g>
   <g id="patch_21">
    <path d="M 318.698587 234.692969 
L 333.679603 234.692969 
L 333.679603 75.788568 
L 318.698587 75.788568 
z
" clip-path="url(#p967a201ea4)" style="fill: #ff0000; stroke: #000000; stroke-width: 0.3; stroke-linejoin: miter"/>
   </g>
   <g id="patch_22">
    <path d="M 381.119488 234.692969 
L 396.100504 234.692969 
L 396.100504 83.09025 
L 381.119488 83.09025 
z
" clip-path="url(#p967a201ea4)" style="fill: #ff0000; stroke: #000000; stroke-width: 0.3; stroke-linejoin: miter"/>
   </g>
   <g id="patch_23">
    <path d="M 271.258702 234.692969 
L 286.239718 234.692969 
L 286.239718 86.957666 
L 271.258702 86.957666 
z
" clip-path="url(#p967a201ea4)" style="fill: #228b22; stroke: #000000; stroke-width: 0.3; stroke-linejoin: miter"/>
   </g>
   <g id="patch_24">
    <path d="M 333.679603 234.692969 
L 348.660619 234.692969 
L 348.660619 76.190779 
L 333.679603 76.190779 
z
" clip-path="url(#p967a201ea4)" style="fill: #228b22; stroke: #000000; stroke-width: 0.3; stroke-linejoin: miter"/>
   </g>
   <g id="patch_25">
    <path d="M 396.100504 234.692969 
L 411.08152 234.692969 
L 411.08152 87.545514 
L 396.100504 87.545514 
z
" clip-path="url(#p967a201ea4)" style="fill: #228b22; stroke: #000000; stroke-width: 0.3; stroke-linejoin: miter"/>
   </g>
   <g id="line2d_40">
    <path d="M 232.807426 203.753638 
L 419.570763 203.753638 
" clip-path="url(#p967a201ea4)" style="fill: none; stroke-dasharray: 3.7,1.6; stroke-dashoffset: 0; stroke: #000000"/>
   </g>
   <g id="patch_26">
    <path d="M 232.807426 234.692969 
L 232.807426 18.117656 
" style="fill: none; stroke: #000000; stroke-width: 0.8; stroke-linejoin: miter; stroke-linecap: square"/>
   </g>
   <g id="patch_27">
    <path d="M 419.570763 234.692969 
L 419.570763 18.117656 
" style="fill: none; stroke: #000000; stroke-width: 0.8; stroke-linejoin: miter; stroke-linecap: square"/>
   </g>
   <g id="patch_28">
    <path d="M 232.807426 234.692969 
L 419.570763 234.692969 
" style="fill: none; stroke: #000000; stroke-width: 0.8; stroke-linejoin: miter; stroke-linecap: square"/>
   </g>
   <g id="patch_29">
    <path d="M 232.807426 18.117656 
L 419.570763 18.117656 
" style="fill: none; stroke: #000000; stroke-width: 0.8; stroke-linejoin: miter; stroke-linecap: square"/>
   </g>
   <g id="text_17">
    <!-- Qwen3-14B -->
    <g transform="translate(282.616438 12.117656) scale(0.15 -0.15)">
     <use xlink:href="#DejaVuSans-34"/>
     <use xlink:href="#DejaVuSans-5a" transform="translate(78.71875 0)"/>
     <use xlink:href="#DejaVuSans-48" transform="translate(160.5 0)"/>
     <use xlink:href="#DejaVuSans-51" transform="translate(222.03125 0)"/>
     <use xlink:href="#DejaVuSans-16" transform="translate(285.40625 0)"/>
     <use xlink:href="#DejaVuSans-10" transform="translate(349.03125 0)"/>
     <use xlink:href="#DejaVuSans-14" transform="translate(385.109375 0)"/>
     <use xlink:href="#DejaVuSans-17" transform="translate(448.734375 0)"/>
     <use xlink:href="#DejaVuSans-25" transform="translate(512.359375 0)"/>
    </g>
   </g>
  </g>
  <g id="axes_3">
   <g id="patch_30">
    <path d="M 435.758759 234.692969 
L 622.522096 234.692969 
L 622.522096 18.117656 
L 435.758759 18.117656 
z
" style="fill: #ffffff"/>
   </g>
   <g id="matplotlib.axis_5">
    <g id="xtick_7">
     <g id="line2d_41"/>
     <g id="text_18">
      <!-- N=8192 -->
      <g transform="translate(441.932964 248.511328) scale(0.12 -0.12)">
       <use xlink:href="#DejaVuSans-31"/>
       <use xlink:href="#DejaVuSans-20" transform="translate(74.8125 0)"/>
       <use xlink:href="#DejaVuSans-1b" transform="translate(158.609375 0)"/>
       <use xlink:href="#DejaVuSans-14" transform="translate(222.234375 0)"/>
       <use xlink:href="#DejaVuSans-1c" transform="translate(285.859375 0)"/>
       <use xlink:href="#DejaVuSans-15" transform="translate(349.484375 0)"/>
      </g>
      <!-- K=8192 -->
      <g transform="translate(442.487026 262.913672) scale(0.12 -0.12)">
       <use xlink:href="#DejaVuSans-2e"/>
       <use xlink:href="#DejaVuSans-20" transform="translate(65.578125 0)"/>
       <use xlink:href="#DejaVuSans-1b" transform="translate(149.375 0)"/>
       <use xlink:href="#DejaVuSans-14" transform="translate(213 0)"/>
       <use xlink:href="#DejaVuSans-1c" transform="translate(276.625 0)"/>
       <use xlink:href="#DejaVuSans-15" transform="translate(340.25 0)"/>
      </g>
     </g>
    </g>
    <g id="xtick_8">
     <g id="line2d_42"/>
     <g id="text_19">
      <!-- N=57344 -->
      <g transform="translate(500.536365 248.511328) scale(0.12 -0.12)">
       <use xlink:href="#DejaVuSans-31"/>
       <use xlink:href="#DejaVuSans-20" transform="translate(74.8125 0)"/>
       <use xlink:href="#DejaVuSans-18" transform="translate(158.609375 0)"/>
       <use xlink:href="#DejaVuSans-1a" transform="translate(222.234375 0)"/>
       <use xlink:href="#DejaVuSans-16" transform="translate(285.859375 0)"/>
       <use xlink:href="#DejaVuSans-17" transform="translate(349.484375 0)"/>
       <use xlink:href="#DejaVuSans-17" transform="translate(413.109375 0)"/>
      </g>
      <!-- K=8192 -->
      <g transform="translate(504.907927 262.913672) scale(0.12 -0.12)">
       <use xlink:href="#DejaVuSans-2e"/>
       <use xlink:href="#DejaVuSans-20" transform="translate(65.578125 0)"/>
       <use xlink:href="#DejaVuSans-1b" transform="translate(149.375 0)"/>
       <use xlink:href="#DejaVuSans-14" transform="translate(213 0)"/>
       <use xlink:href="#DejaVuSans-1c" transform="translate(276.625 0)"/>
       <use xlink:href="#DejaVuSans-15" transform="translate(340.25 0)"/>
      </g>
     </g>
    </g>
    <g id="xtick_9">
     <g id="line2d_43"/>
     <g id="text_20">
      <!-- N=8192 -->
      <g transform="translate(566.774766 248.511328) scale(0.12 -0.12)">
       <use xlink:href="#DejaVuSans-31"/>
       <use xlink:href="#DejaVuSans-20" transform="translate(74.8125 0)"/>
       <use xlink:href="#DejaVuSans-1b" transform="translate(158.609375 0)"/>
       <use xlink:href="#DejaVuSans-14" transform="translate(222.234375 0)"/>
       <use xlink:href="#DejaVuSans-1c" transform="translate(285.859375 0)"/>
       <use xlink:href="#DejaVuSans-15" transform="translate(349.484375 0)"/>
      </g>
      <!-- K=28672 -->
      <g transform="translate(563.511329 262.913672) scale(0.12 -0.12)">
       <use xlink:href="#DejaVuSans-2e"/>
       <use xlink:href="#DejaVuSans-20" transform="translate(65.578125 0)"/>
       <use xlink:href="#DejaVuSans-15" transform="translate(149.375 0)"/>
       <use xlink:href="#DejaVuSans-1b" transform="translate(213 0)"/>
       <use xlink:href="#DejaVuSans-19" transform="translate(276.625 0)"/>
       <use xlink:href="#DejaVuSans-1a" transform="translate(340.25 0)"/>
       <use xlink:href="#DejaVuSans-15" transform="translate(403.875 0)"/>
      </g>
     </g>
    </g>
   </g>
   <g id="matplotlib.axis_6">
    <g id="ytick_17">
     <g id="line2d_44">
      <path d="M 435.758759 234.692969 
L 622.522096 234.692969 
" clip-path="url(#p70df8ea29c)" style="fill: none; stroke: #b0b0b0; stroke-width: 0.4; stroke-linecap: square"/>
     </g>
     <g id="line2d_45"/>
    </g>
    <g id="ytick_18">
     <g id="line2d_46">
      <path d="M 435.758759 203.753638 
L 622.522096 203.753638 
" clip-path="url(#p70df8ea29c)" style="fill: none; stroke: #b0b0b0; stroke-width: 0.4; stroke-linecap: square"/>
     </g>
     <g id="line2d_47"/>
    </g>
    <g id="ytick_19">
     <g id="line2d_48">
      <path d="M 435.758759 172.814308 
L 622.522096 172.814308 
" clip-path="url(#p70df8ea29c)" style="fill: none; stroke: #b0b0b0; stroke-width: 0.4; stroke-linecap: square"/>
     </g>
     <g id="line2d_49"/>
    </g>
    <g id="ytick_20">
     <g id="line2d_50">
      <path d="M 435.758759 141.874978 
L 622.522096 141.874978 
" clip-path="url(#p70df8ea29c)" style="fill: none; stroke: #b0b0b0; stroke-width: 0.4; stroke-linecap: square"/>
     </g>
     <g id="line2d_51"/>
    </g>
    <g id="ytick_21">
     <g id="line2d_52">
      <path d="M 435.758759 110.935647 
L 622.522096 110.935647 
" clip-path="url(#p70df8ea29c)" style="fill: none; stroke: #b0b0b0; stroke-width: 0.4; stroke-linecap: square"/>
     </g>
     <g id="line2d_53"/>
    </g>
    <g id="ytick_22">
     <g id="line2d_54">
      <path d="M 435.758759 79.996317 
L 622.522096 79.996317 
" clip-path="url(#p70df8ea29c)" style="fill: none; stroke: #b0b0b0; stroke-width: 0.4; stroke-linecap: square"/>
     </g>
     <g id="line2d_55"/>
    </g>
    <g id="ytick_23">
     <g id="line2d_56">
      <path d="M 435.758759 49.056987 
L 622.522096 49.056987 
" clip-path="url(#p70df8ea29c)" style="fill: none; stroke: #b0b0b0; stroke-width: 0.4; stroke-linecap: square"/>
     </g>
     <g id="line2d_57"/>
    </g>
    <g id="ytick_24">
     <g id="line2d_58">
      <path d="M 435.758759 18.117656 
L 622.522096 18.117656 
" clip-path="url(#p70df8ea29c)" style="fill: none; stroke: #b0b0b0; stroke-width: 0.4; stroke-linecap: square"/>
     </g>
     <g id="line2d_59"/>
    </g>
   </g>
   <g id="patch_31">
    <path d="M 444.248002 234.692969 
L 459.229018 234.692969 
L 459.229018 35.412742 
L 444.248002 35.412742 
z
" clip-path="url(#p70df8ea29c)" style="fill: #1e90ff; stroke: #000000; stroke-width: 0.3; stroke-linejoin: miter"/>
   </g>
   <g id="patch_32">
    <path d="M 506.668903 234.692969 
L 521.649919 234.692969 
L 521.649919 72.385242 
L 506.668903 72.385242 
z
" clip-path="url(#p70df8ea29c)" style="fill: #1e90ff; stroke: #000000; stroke-width: 0.3; stroke-linejoin: miter"/>
   </g>
   <g id="patch_33">
    <path d="M 569.089804 234.692969 
L 584.07082 234.692969 
L 584.07082 42.281273 
L 569.089804 42.281273 
z
" clip-path="url(#p70df8ea29c)" style="fill: #1e90ff; stroke: #000000; stroke-width: 0.3; stroke-linejoin: miter"/>
   </g>
   <g id="patch_34">
    <path d="M 459.229018 234.692969 
L 474.210034 234.692969 
L 474.210034 55.430489 
L 459.229018 55.430489 
z
" clip-path="url(#p70df8ea29c)" style="fill: #ff0000; stroke: #000000; stroke-width: 0.3; stroke-linejoin: miter"/>
   </g>
   <g id="patch_35">
    <path d="M 521.649919 234.692969 
L 536.630936 234.692969 
L 536.630936 75.633871 
L 521.649919 75.633871 
z
" clip-path="url(#p70df8ea29c)" style="fill: #ff0000; stroke: #000000; stroke-width: 0.3; stroke-linejoin: miter"/>
   </g>
   <g id="patch_36">
    <path d="M 584.07082 234.692969 
L 599.051837 234.692969 
L 599.051837 62.020566 
L 584.07082 62.020566 
z
" clip-path="url(#p70df8ea29c)" style="fill: #ff0000; stroke: #000000; stroke-width: 0.3; stroke-linejoin: miter"/>
   </g>
   <g id="patch_37">
    <path d="M 474.210034 234.692969 
L 489.191051 234.692969 
L 489.191051 56.606183 
L 474.210034 56.606183 
z
" clip-path="url(#p70df8ea29c)" style="fill: #228b22; stroke: #000000; stroke-width: 0.3; stroke-linejoin: miter"/>
   </g>
   <g id="patch_38">
    <path d="M 536.630936 234.692969 
L 551.611952 234.692969 
L 551.611952 75.819507 
L 536.630936 75.819507 
z
" clip-path="url(#p70df8ea29c)" style="fill: #228b22; stroke: #000000; stroke-width: 0.3; stroke-linejoin: miter"/>
   </g>
   <g id="patch_39">
    <path d="M 599.051837 234.692969 
L 614.032853 234.692969 
L 614.032853 64.61947 
L 599.051837 64.61947 
z
" clip-path="url(#p70df8ea29c)" style="fill: #228b22; stroke: #000000; stroke-width: 0.3; stroke-linejoin: miter"/>
   </g>
   <g id="line2d_60">
    <path d="M 435.758759 203.753638 
L 622.522096 203.753638 
" clip-path="url(#p70df8ea29c)" style="fill: none; stroke-dasharray: 3.7,1.6; stroke-dashoffset: 0; stroke: #000000"/>
   </g>
   <g id="patch_40">
    <path d="M 435.758759 234.692969 
L 435.758759 18.117656 
" style="fill: none; stroke: #000000; stroke-width: 0.8; stroke-linejoin: miter; stroke-linecap: square"/>
   </g>
   <g id="patch_41">
    <path d="M 622.522096 234.692969 
L 622.522096 18.117656 
" style="fill: none; stroke: #000000; stroke-width: 0.8; stroke-linejoin: miter; stroke-linecap: square"/>
   </g>
   <g id="patch_42">
    <path d="M 435.758759 234.692969 
L 622.522096 234.692969 
" style="fill: none; stroke: #000000; stroke-width: 0.8; stroke-linejoin: miter; stroke-linecap: square"/>
   </g>
   <g id="patch_43">
    <path d="M 435.758759 18.117656 
L 622.522096 18.117656 
" style="fill: none; stroke: #000000; stroke-width: 0.8; stroke-linejoin: miter; stroke-linecap: square"/>
   </g>
   <g id="text_21">
    <!-- Llama-3.1-70B -->
    <g transform="translate(474.351756 12.117656) scale(0.15 -0.15)">
     <defs>
      <path id="DejaVuSans-2f" d="M 628 4666 
L 1259 4666 
L 1259 531 
L 3531 531 
L 3531 0 
L 628 0 
L 628 4666 
z
" transform="scale(0.015625)"/>
      <path id="DejaVuSans-4f" d="M 603 4863 
L 1178 4863 
L 1178 0 
L 603 0 
L 603 4863 
z
" transform="scale(0.015625)"/>
      <path id="DejaVuSans-44" d="M 2194 1759 
Q 1497 1759 1228 1600 
Q 959 1441 959 1056 
Q 959 750 1161 570 
Q 1363 391 1709 391 
Q 2188 391 2477 730 
Q 2766 1069 2766 1631 
L 2766 1759 
L 2194 1759 
z
M 3341 1997 
L 3341 0 
L 2766 0 
L 2766 531 
Q 2569 213 2275 61 
Q 1981 -91 1556 -91 
Q 1019 -91 701 211 
Q 384 513 384 1019 
Q 384 1609 779 1909 
Q 1175 2209 1959 2209 
L 2766 2209 
L 2766 2266 
Q 2766 2663 2505 2880 
Q 2244 3097 1772 3097 
Q 1472 3097 1187 3025 
Q 903 2953 641 2809 
L 641 3341 
Q 956 3463 1253 3523 
Q 1550 3584 1831 3584 
Q 2591 3584 2966 3190 
Q 3341 2797 3341 1997 
z
" transform="scale(0.015625)"/>
      <path id="DejaVuSans-50" d="M 3328 2828 
Q 3544 3216 3844 3400 
Q 4144 3584 4550 3584 
Q 5097 3584 5394 3201 
Q 5691 2819 5691 2113 
L 5691 0 
L 5113 0 
L 5113 2094 
Q 5113 2597 4934 2840 
Q 4756 3084 4391 3084 
Q 3944 3084 3684 2787 
Q 3425 2491 3425 1978 
L 3425 0 
L 2847 0 
L 2847 2094 
Q 2847 2600 2669 2842 
Q 2491 3084 2119 3084 
Q 1678 3084 1418 2786 
Q 1159 2488 1159 1978 
L 1159 0 
L 581 0 
L 581 3500 
L 1159 3500 
L 1159 2956 
Q 1356 3278 1631 3431 
Q 1906 3584 2284 3584 
Q 2666 3584 2933 3390 
Q 3200 3197 3328 2828 
z
" transform="scale(0.015625)"/>
     </defs>
     <use xlink:href="#DejaVuSans-2f"/>
     <use xlink:href="#DejaVuSans-4f" transform="translate(55.71875 0)"/>
     <use xlink:href="#DejaVuSans-44" transform="translate(83.5 0)"/>
     <use xlink:href="#DejaVuSans-50" transform="translate(144.78125 0)"/>
     <use xlink:href="#DejaVuSans-44" transform="translate(242.1875 0)"/>
     <use xlink:href="#DejaVuSans-10" transform="translate(303.46875 0)"/>
     <use xlink:href="#DejaVuSans-16" transform="translate(339.546875 0)"/>
     <use xlink:href="#DejaVuSans-11" transform="translate(403.171875 0)"/>
     <use xlink:href="#DejaVuSans-14" transform="translate(434.953125 0)"/>
     <use xlink:href="#DejaVuSans-10" transform="translate(498.578125 0)"/>
     <use xlink:href="#DejaVuSans-1a" transform="translate(534.65625 0)"/>
     <use xlink:href="#DejaVuSans-13" transform="translate(598.28125 0)"/>
     <use xlink:href="#DejaVuSans-25" transform="translate(661.90625 0)"/>
    </g>
   </g>
  </g>
  <g id="legend_1">
   <g id="patch_44">
    <path d="M 42.186875 300.798437 
L 585.085312 300.798437 
Q 587.085312 300.798437 587.085312 298.798437 
L 587.085312 284.797656 
Q 587.085312 282.797656 585.085312 282.797656 
L 42.186875 282.797656 
Q 40.186875 282.797656 40.186875 284.797656 
L 40.186875 298.798437 
Q 40.186875 300.798437 42.186875 300.798437 
z
" style="fill: #ffffff; stroke: #cccccc; stroke-linejoin: miter"/>
   </g>
   <g id="patch_45">
    <path d="M 44.186875 294.396094 
L 64.186875 294.396094 
L 64.186875 287.396094 
L 44.186875 287.396094 
z
" style="fill: #1e90ff; stroke: #000000; stroke-width: 0.3; stroke-linejoin: miter"/>
   </g>
   <g id="text_22">
    <!-- None + None + FP4-MatMul -->
    <g transform="translate(72.186875 294.396094) scale(0.1 -0.1)">
     <defs>
      <path id="DejaVuSans-52" d="M 1959 3097 
Q 1497 3097 1228 2736 
Q 959 2375 959 1747 
Q 959 1119 1226 758 
Q 1494 397 1959 397 
Q 2419 397 2687 759 
Q 2956 1122 2956 1747 
Q 2956 2369 2687 2733 
Q 2419 3097 1959 3097 
z
M 1959 3584 
Q 2709 3584 3137 3096 
Q 3566 2609 3566 1747 
Q 3566 888 3137 398 
Q 2709 -91 1959 -91 
Q 1206 -91 779 398 
Q 353 888 353 1747 
Q 353 2609 779 3096 
Q 1206 3584 1959 3584 
z
" transform="scale(0.015625)"/>
      <path id="DejaVuSans-e" d="M 2944 4013 
L 2944 2272 
L 4684 2272 
L 4684 1741 
L 2944 1741 
L 2944 0 
L 2419 0 
L 2419 1741 
L 678 1741 
L 678 2272 
L 2419 2272 
L 2419 4013 
L 2944 4013 
z
" transform="scale(0.015625)"/>
      <path id="DejaVuSans-33" d="M 1259 4147 
L 1259 2394 
L 2053 2394 
Q 2494 2394 2734 2622 
Q 2975 2850 2975 3272 
Q 2975 3691 2734 3919 
Q 2494 4147 2053 4147 
L 1259 4147 
z
M 628 4666 
L 2053 4666 
Q 2838 4666 3239 4311 
Q 3641 3956 3641 3272 
Q 3641 2581 3239 2228 
Q 2838 1875 2053 1875 
L 1259 1875 
L 1259 0 
L 628 0 
L 628 4666 
z
" transform="scale(0.015625)"/>
      <path id="DejaVuSans-57" d="M 1172 4494 
L 1172 3500 
L 2356 3500 
L 2356 3053 
L 1172 3053 
L 1172 1153 
Q 1172 725 1289 603 
Q 1406 481 1766 481 
L 2356 481 
L 2356 0 
L 1766 0 
Q 1100 0 847 248 
Q 594 497 594 1153 
L 594 3053 
L 172 3053 
L 172 3500 
L 594 3500 
L 594 4494 
L 1172 4494 
z
" transform="scale(0.015625)"/>
     </defs>
     <use xlink:href="#DejaVuSans-31"/>
     <use xlink:href="#DejaVuSans-52" transform="translate(74.8125 0)"/>
     <use xlink:href="#DejaVuSans-51" transform="translate(136 0)"/>
     <use xlink:href="#DejaVuSans-48" transform="translate(199.375 0)"/>
     <use xlink:href="#DejaVuSans-3" transform="translate(260.90625 0)"/>
     <use xlink:href="#DejaVuSans-e" transform="translate(292.6875 0)"/>
     <use xlink:href="#DejaVuSans-3" transform="translate(376.484375 0)"/>
     <use xlink:href="#DejaVuSans-31" transform="translate(408.265625 0)"/>
     <use xlink:href="#DejaVuSans-52" transform="translate(483.078125 0)"/>
     <use xlink:href="#DejaVuSans-51" transform="translate(544.265625 0)"/>
     <use xlink:href="#DejaVuSans-48" transform="translate(607.640625 0)"/>
     <use xlink:href="#DejaVuSans-3" transform="translate(669.171875 0)"/>
     <use xlink:href="#DejaVuSans-e" transform="translate(700.953125 0)"/>
     <use xlink:href="#DejaVuSans-3" transform="translate(784.75 0)"/>
     <use xlink:href="#DejaVuSans-29" transform="translate(816.53125 0)"/>
     <use xlink:href="#DejaVuSans-33" transform="translate(874.046875 0)"/>
     <use xlink:href="#DejaVuSans-17" transform="translate(934.34375 0)"/>
     <use xlink:href="#DejaVuSans-10" transform="translate(997.96875 0)"/>
     <use xlink:href="#DejaVuSans-30" transform="translate(1034.046875 0)"/>
     <use xlink:href="#DejaVuSans-44" transform="translate(1120.328125 0)"/>
     <use xlink:href="#DejaVuSans-57" transform="translate(1181.609375 0)"/>
     <use xlink:href="#DejaVuSans-30" transform="translate(1220.8125 0)"/>
     <use xlink:href="#DejaVuSans-58" transform="translate(1307.09375 0)"/>
     <use xlink:href="#DejaVuSans-4f" transform="translate(1370.46875 0)"/>
    </g>
   </g>
   <g id="patch_46">
    <path d="M 232.011875 294.396094 
L 252.011875 294.396094 
L 252.011875 287.396094 
L 232.011875 287.396094 
z
" style="fill: #ff0000; stroke: #000000; stroke-width: 0.3; stroke-linejoin: miter"/>
   </g>
   <g id="text_23">
    <!-- H + Quant + FP4-MatMul -->
    <g transform="translate(260.011875 294.396094) scale(0.1 -0.1)">
     <defs>
      <path id="DejaVuSans-2b" d="M 628 4666 
L 1259 4666 
L 1259 2753 
L 3553 2753 
L 3553 4666 
L 4184 4666 
L 4184 0 
L 3553 0 
L 3553 2222 
L 1259 2222 
L 1259 0 
L 628 0 
L 628 4666 
z
" transform="scale(0.015625)"/>
     </defs>
     <use xlink:href="#DejaVuSans-2b"/>
     <use xlink:href="#DejaVuSans-3" transform="translate(75.203125 0)"/>
     <use xlink:href="#DejaVuSans-e" transform="translate(106.984375 0)"/>
     <use xlink:href="#DejaVuSans-3" transform="translate(190.78125 0)"/>
     <use xlink:href="#DejaVuSans-34" transform="translate(222.5625 0)"/>
     <use xlink:href="#DejaVuSans-58" transform="translate(301.28125 0)"/>
     <use xlink:href="#DejaVuSans-44" transform="translate(364.65625 0)"/>
     <use xlink:href="#DejaVuSans-51" transform="translate(425.9375 0)"/>
     <use xlink:href="#DejaVuSans-57" transform="translate(489.3125 0)"/>
     <use xlink:href="#DejaVuSans-3" transform="translate(528.515625 0)"/>
     <use xlink:href="#DejaVuSans-e" transform="translate(560.296875 0)"/>
     <use xlink:href="#DejaVuSans-3" transform="translate(644.09375 0)"/>
     <use xlink:href="#DejaVuSans-29" transform="translate(675.875 0)"/>
     <use xlink:href="#DejaVuSans-33" transform="translate(733.390625 0)"/>
     <use xlink:href="#DejaVuSans-17" transform="translate(793.6875 0)"/>
     <use xlink:href="#DejaVuSans-10" transform="translate(857.3125 0)"/>
     <use xlink:href="#DejaVuSans-30" transform="translate(893.390625 0)"/>
     <use xlink:href="#DejaVuSans-44" transform="translate(979.671875 0)"/>
     <use xlink:href="#DejaVuSans-57" transform="translate(1040.953125 0)"/>
     <use xlink:href="#DejaVuSans-30" transform="translate(1080.15625 0)"/>
     <use xlink:href="#DejaVuSans-58" transform="translate(1166.4375 0)"/>
     <use xlink:href="#DejaVuSans-4f" transform="translate(1229.8125 0)"/>
    </g>
   </g>
   <g id="patch_47">
    <path d="M 405.77125 294.396094 
L 425.77125 294.396094 
L 425.77125 287.396094 
L 405.77125 287.396094 
z
" style="fill: #228b22; stroke: #000000; stroke-width: 0.3; stroke-linejoin: miter"/>
   </g>
   <g id="text_24">
    <!-- WUSH + Quant + FP4-MatMul -->
    <g transform="translate(433.77125 294.396094) scale(0.1 -0.1)">
     <defs>
      <path id="DejaVuSans-3a" d="M 213 4666 
L 850 4666 
L 1831 722 
L 2809 4666 
L 3519 4666 
L 4500 722 
L 5478 4666 
L 6119 4666 
L 4947 0 
L 4153 0 
L 3169 4050 
L 2175 0 
L 1381 0 
L 213 4666 
z
" transform="scale(0.015625)"/>
      <path id="DejaVuSans-38" d="M 556 4666 
L 1191 4666 
L 1191 1831 
Q 1191 1081 1462 751 
Q 1734 422 2344 422 
Q 2950 422 3222 751 
Q 3494 1081 3494 1831 
L 3494 4666 
L 4128 4666 
L 4128 1753 
Q 4128 841 3676 375 
Q 3225 -91 2344 -91 
Q 1459 -91 1007 375 
Q 556 841 556 1753 
L 556 4666 
z
" transform="scale(0.015625)"/>
     </defs>
     <use xlink:href="#DejaVuSans-3a"/>
     <use xlink:href="#DejaVuSans-38" transform="translate(98.875 0)"/>
     <use xlink:href="#DejaVuSans-36" transform="translate(172.0625 0)"/>
     <use xlink:href="#DejaVuSans-2b" transform="translate(235.546875 0)"/>
     <use xlink:href="#DejaVuSans-3" transform="translate(310.75 0)"/>
     <use xlink:href="#DejaVuSans-e" transform="translate(342.53125 0)"/>
     <use xlink:href="#DejaVuSans-3" transform="translate(426.328125 0)"/>
     <use xlink:href="#DejaVuSans-34" transform="translate(458.109375 0)"/>
     <use xlink:href="#DejaVuSans-58" transform="translate(536.828125 0)"/>
     <use xlink:href="#DejaVuSans-44" transform="translate(600.203125 0)"/>
     <use xlink:href="#DejaVuSans-51" transform="translate(661.484375 0)"/>
     <use xlink:href="#DejaVuSans-57" transform="translate(724.859375 0)"/>
     <use xlink:href="#DejaVuSans-3" transform="translate(764.0625 0)"/>
     <use xlink:href="#DejaVuSans-e" transform="translate(795.84375 0)"/>
     <use xlink:href="#DejaVuSans-3" transform="translate(879.640625 0)"/>
     <use xlink:href="#DejaVuSans-29" transform="translate(911.421875 0)"/>
     <use xlink:href="#DejaVuSans-33" transform="translate(968.9375 0)"/>
     <use xlink:href="#DejaVuSans-17" transform="translate(1029.234375 0)"/>
     <use xlink:href="#DejaVuSans-10" transform="translate(1092.859375 0)"/>
     <use xlink:href="#DejaVuSans-30" transform="translate(1128.9375 0)"/>
     <use xlink:href="#DejaVuSans-44" transform="translate(1215.21875 0)"/>
     <use xlink:href="#DejaVuSans-57" transform="translate(1276.5 0)"/>
     <use xlink:href="#DejaVuSans-30" transform="translate(1315.703125 0)"/>
     <use xlink:href="#DejaVuSans-58" transform="translate(1401.984375 0)"/>
     <use xlink:href="#DejaVuSans-4f" transform="translate(1465.359375 0)"/>
    </g>
   </g>
  </g>
 </g>
 <defs>
  <clipPath id="p1a313a992f">
   <rect x="29.856094" y="18.117656" width="186.763336" height="216.575312"/>
  </clipPath>
  <clipPath id="p967a201ea4">
   <rect x="232.807426" y="18.117656" width="186.763336" height="216.575312"/>
  </clipPath>
  <clipPath id="p70df8ea29c">
   <rect x="435.758759" y="18.117656" width="186.763336" height="216.575312"/>
  </clipPath>
 </defs>
</svg>
